<svg viewBox="0 0 500 500" xmlns="http://www.w3.org/2000/svg">
<rect fill="rgba(255, 255, 255, 1)" height="100%" width="100%"/>
<line stroke="rgba(0, 0, 0, 1)" stroke-width="0.7px" x1="250" x2="250" y1="250" y2="245"/>
<line stroke="rgba(0, 0, 0, 1)" stroke-width="0.7px" x1="250" x2="250" y1="245" y2="240"/>
<line stroke="rgba(0, 0, 0, 1)" stroke-width="0.7px" x1="250" x2="250" y1="240" y2="235"/>
<line stroke="rgba(0, 0, 0, 1)" stroke-width="0.7px" x1="250" x2="250" y1="235" y2="230"/>
<line stroke="rgba(0, 0, 0, 1)" stroke-width="0.7px" x1="250" x2="250" y1="230" y2="225"/>
<line stroke="rgba(0, 0, 0, 1)" stroke-width="0.7px" x1="250" x2="250" y1="225" y2="220"/>
<line stroke="rgba(0, 0, 0, 1)" stroke-width="0.7px" x1="250" x2="250" y1="220" y2="215"/>
<line stroke="rgba(0, 0, 0, 1)" stroke-width="0.7px" x1="250" x2="250" y1="215" y2="210"/>
<line stroke="rgba(0, 0, 0, 1)" stroke-width="0.7px" x1="250" x2="250" y1="210" y2="205"/>
<line stroke="rgba(0, 0, 0, 1)" stroke-width="0.7px" x1="250" x2="250" y1="205" y2="200"/>
<line stroke="rgba(0, 0, 0, 1)" stroke-width="0.7px" x1="250" x2="250" y1="200" y2="195"/>
<line stroke="rgba(0, 0, 0, 1)" stroke-width="0.7px" x1="250" x2="250" y1="195" y2="190"/>
<line stroke="rgba(0, 0, 0, 1)" stroke-width="0.7px" x1="250" x2="250" y1="190" y2="185"/>
<line stroke="rgba(0, 0, 0, 1)" stroke-width="0.7px" x1="250" x2="250" y1="185" y2="180"/>
<line stroke="rgba(0, 0, 0, 1)" stroke-width="0.7px" x1="250" x2="250" y1="180" y2="175"/>
<line stroke="rgba(0, 0, 0, 1)" stroke-width="0.7px" x1="250" x2="250" y1="175" y2="170"/>
<line stroke="rgba(0, 0, 0, 1)" stroke-width="0.7px" x1="250" x2="250" y1="170" y2="165"/>
<line stroke="rgba(0, 0, 0, 1)" stroke-width="0.7px" x1="250" x2="250" y1="165" y2="160"/>
<line stroke="rgba(0, 0, 0, 1)" stroke-width="0.7px" x1="250" x2="250" y1="160" y2="155"/>
<line stroke="rgba(0, 0, 0, 1)" stroke-width="0.7px" x1="250" x2="250" y1="155" y2="150"/>
<line stroke="rgba(0, 0, 0, 1)" stroke-width="0.7px" x1="250" x2="250" y1="150" y2="145"/>
<line stroke="rgba(0, 0, 0, 1)" stroke-width="0.7px" x1="250" x2="250" y1="145" y2="140"/>
<line stroke="rgba(0, 0, 0, 1)" stroke-width="0.7px" x1="250" x2="250" y1="140" y2="135"/>
<line stroke="rgba(0, 0, 0, 1)" stroke-width="0.7px" x1="250" x2="250" y1="135" y2="130"/>
<line stroke="rgba(0, 0, 0, 1)" stroke-width="0.7px" x1="250" x2="250" y1="130" y2="125"/>
<line stroke="rgba(0, 0, 0, 1)" stroke-width="0.7px" x1="250" x2="250" y1="125" y2="120"/>
<line stroke="rgba(0, 0, 0, 1)" stroke-width="0.7px" x1="250" x2="250" y1="120" y2="115"/>
<line stroke="rgba(0, 0, 0, 1)" stroke-width="0.7px" x1="250" x2="250" y1="115" y2="110"/>
<line stroke="rgba(0, 0, 0, 1)" stroke-width="0.7px" x1="250" x2="250" y1="110" y2="105"/>
<line stroke="rgba(0, 0, 0, 1)" stroke-width="0.7px" x1="250" x2="250" y1="105" y2="100"/>
<line stroke="rgba(0, 0, 0, 1)" stroke-width="0.7px" x1="250" x2="250" y1="100" y2="95"/>
<line stroke="rgba(0, 0, 0, 1)" stroke-width="0.7px" x1="250" x2="250" y1="95" y2="90"/>
<line stroke="rgba(0, 0, 0, 1)" stroke-width="0.7px" x1="250" x2="246.46446609406726" y1="90" y2="86.46446609406726"/>
<line stroke="rgba(0, 0, 0, 1)" stroke-width="0.7px" x1="246.46446609406726" x2="242.92893218813452" y1="86.46446609406726" y2="82.92893218813452"/>
<line stroke="rgba(0, 0, 0, 1)" stroke-width="0.7px" x1="242.92893218813452" x2="239.3933982822018" y1="82.92893218813452" y2="79.39339828220179"/>
<line stroke="rgba(0, 0, 0, 1)" stroke-width="0.7px" x1="239.3933982822018" x2="235.85786437626905" y1="79.39339828220179" y2="75.85786437626905"/>
<line stroke="rgba(0, 0, 0, 1)" stroke-width="0.7px" x1="235.85786437626905" x2="232.3223304703363" y1="75.85786437626905" y2="72.32233047033631"/>
<line stroke="rgba(0, 0, 0, 1)" stroke-width="0.7px" x1="232.3223304703363" x2="228.78679656440357" y1="72.32233047033631" y2="68.78679656440357"/>
<line stroke="rgba(0, 0, 0, 1)" stroke-width="0.7px" x1="228.78679656440357" x2="225.25126265847084" y1="68.78679656440357" y2="65.25126265847084"/>
<line stroke="rgba(0, 0, 0, 1)" stroke-width="0.7px" x1="225.25126265847084" x2="221.7157287525381" y1="65.25126265847084" y2="61.7157287525381"/>
<line stroke="rgba(0, 0, 0, 1)" stroke-width="0.7px" x1="221.7157287525381" x2="218.18019484660536" y1="61.7157287525381" y2="58.18019484660536"/>
<line stroke="rgba(0, 0, 0, 1)" stroke-width="0.7px" x1="218.18019484660536" x2="214.64466094067262" y1="58.18019484660536" y2="54.64466094067265"/>
<line stroke="rgba(0, 0, 0, 1)" stroke-width="0.7px" x1="214.64466094067262" x2="211.1091270347399" y1="54.64466094067265" y2="51.10912703473991"/>
<line stroke="rgba(0, 0, 0, 1)" stroke-width="0.7px" x1="211.1091270347399" x2="207.57359312880715" y1="51.10912703473991" y2="47.573593128807204"/>
<line stroke="rgba(0, 0, 0, 1)" stroke-width="0.7px" x1="207.57359312880715" x2="204.03805922287444" y1="47.573593128807204" y2="44.038059222874466"/>
<line stroke="rgba(0, 0, 0, 1)" stroke-width="0.7px" x1="204.03805922287444" x2="200.50252531694167" y1="44.038059222874466" y2="40.50252531694173"/>
<line stroke="rgba(0, 0, 0, 1)" stroke-width="0.7px" x1="200.50252531694167" x2="196.96699141100896" y1="40.50252531694173" y2="36.96699141100899"/>
<line stroke="rgba(0, 0, 0, 1)" stroke-width="0.7px" x1="196.96699141100896" x2="193.4314575050762" y1="36.96699141100899" y2="33.43145750507625"/>
<line stroke="rgba(0, 0, 0, 1)" stroke-width="0.7px" x1="193.4314575050762" x2="188.4314575050762" y1="33.43145750507625" y2="33.43145750507625"/>
<line stroke="rgba(0, 0, 0, 1)" stroke-width="0.7px" x1="188.4314575050762" x2="183.4314575050762" y1="33.43145750507625" y2="33.43145750507625"/>
<line stroke="rgba(0, 0, 0, 1)" stroke-width="0.7px" x1="183.4314575050762" x2="178.4314575050762" y1="33.43145750507625" y2="33.43145750507625"/>
<line stroke="rgba(0, 0, 0, 1)" stroke-width="0.7px" x1="178.4314575050762" x2="173.4314575050762" y1="33.43145750507625" y2="33.43145750507625"/>
<line stroke="rgba(0, 0, 0, 1)" stroke-width="0.7px" x1="173.4314575050762" x2="168.4314575050762" y1="33.43145750507625" y2="33.43145750507625"/>
<line stroke="rgba(0, 0, 0, 1)" stroke-width="0.7px" x1="168.4314575050762" x2="163.4314575050762" y1="33.43145750507625" y2="33.43145750507625"/>
<line stroke="rgba(0, 0, 0, 1)" stroke-width="0.7px" x1="163.4314575050762" x2="158.4314575050762" y1="33.43145750507625" y2="33.43145750507625"/>
<line stroke="rgba(0, 0, 0, 1)" stroke-width="0.7px" x1="158.4314575050762" x2="153.4314575050762" y1="33.43145750507625" y2="33.43145750507625"/>
<line stroke="rgba(0, 0, 0, 1)" stroke-width="0.7px" x1="153.4314575050762" x2="149.89592359914346" y1="33.43145750507625" y2="36.96699141100899"/>
<line stroke="rgba(0, 0, 0, 1)" stroke-width="0.7px" x1="149.89592359914346" x2="146.36038969321072" y1="36.96699141100899" y2="40.50252531694173"/>
<line stroke="rgba(0, 0, 0, 1)" stroke-width="0.7px" x1="146.36038969321072" x2="142.82485578727798" y1="40.50252531694173" y2="44.038059222874466"/>
<line stroke="rgba(0, 0, 0, 1)" stroke-width="0.7px" x1="142.82485578727798" x2="139.28932188134524" y1="44.038059222874466" y2="47.573593128807204"/>
<line stroke="rgba(0, 0, 0, 1)" stroke-width="0.7px" x1="139.28932188134524" x2="139.28932188134524" y1="47.573593128807204" y2="52.573593128807204"/>
<line stroke="rgba(0, 0, 0, 1)" stroke-width="0.7px" x1="139.28932188134524" x2="139.28932188134524" y1="52.573593128807204" y2="57.573593128807204"/>
<line stroke="rgba(0, 0, 0, 1)" stroke-width="0.7px" x1="139.28932188134524" x2="142.82485578727798" y1="57.573593128807204" y2="61.10912703473991"/>
<line stroke="rgba(0, 0, 0, 1)" stroke-width="0.7px" x1="142.82485578727798" x2="147.82485578727798" y1="61.10912703473991" y2="61.10912703473991"/>
<line stroke="rgba(0, 0, 0, 1)" stroke-width="0.7px" x1="142.82485578727798" x2="142.82485578727798" y1="61.10912703473991" y2="66.10912703473991"/>
<line stroke="rgba(0, 0, 0, 1)" stroke-width="0.7px" x1="139.28932188134524" x2="135.75378797541254" y1="57.573593128807204" y2="61.10912703473991"/>
<line stroke="rgba(0, 0, 0, 1)" stroke-width="0.7px" x1="135.75378797541254" x2="135.75378797541254" y1="61.10912703473991" y2="66.10912703473991"/>
<line stroke="rgba(0, 0, 0, 1)" stroke-width="0.7px" x1="135.75378797541254" x2="130.75378797541254" y1="61.10912703473991" y2="61.10912703473991"/>
<line stroke="rgba(0, 0, 0, 1)" stroke-width="0.7px" x1="139.28932188134524" x2="134.28932188134524" y1="47.573593128807204" y2="47.573593128807204"/>
<line stroke="rgba(0, 0, 0, 1)" stroke-width="0.7px" x1="134.28932188134524" x2="129.28932188134524" y1="47.573593128807204" y2="47.573593128807204"/>
<line stroke="rgba(0, 0, 0, 1)" stroke-width="0.7px" x1="129.28932188134524" x2="125.75378797541252" y1="47.573593128807204" y2="51.10912703473991"/>
<line stroke="rgba(0, 0, 0, 1)" stroke-width="0.7px" x1="125.75378797541252" x2="125.75378797541252" y1="51.10912703473991" y2="56.10912703473991"/>
<line stroke="rgba(0, 0, 0, 1)" stroke-width="0.7px" x1="125.75378797541252" x2="120.75378797541254" y1="51.10912703473991" y2="51.10912703473991"/>
<line stroke="rgba(0, 0, 0, 1)" stroke-width="0.7px" x1="129.28932188134524" x2="125.75378797541252" y1="47.573593128807204" y2="44.038059222874466"/>
<line stroke="rgba(0, 0, 0, 1)" stroke-width="0.7px" x1="125.75378797541252" x2="120.75378797541254" y1="44.038059222874466" y2="44.038059222874466"/>
<line stroke="rgba(0, 0, 0, 1)" stroke-width="0.7px" x1="125.75378797541252" x2="125.75378797541252" y1="44.038059222874466" y2="39.038059222874466"/>
<line stroke="rgba(0, 0, 0, 1)" stroke-width="0.7px" x1="153.4314575050762" x2="149.89592359914346" y1="33.43145750507625" y2="29.895923599143515"/>
<line stroke="rgba(0, 0, 0, 1)" stroke-width="0.7px" x1="149.89592359914346" x2="146.36038969321072" y1="29.895923599143515" y2="26.360389693210806"/>
<line stroke="rgba(0, 0, 0, 1)" stroke-width="0.7px" x1="146.36038969321072" x2="142.82485578727798" y1="26.360389693210806" y2="22.824855787278068"/>
<line stroke="rgba(0, 0, 0, 1)" stroke-width="0.7px" x1="142.82485578727798" x2="139.28932188134524" y1="22.824855787278068" y2="19.28932188134533"/>
<line stroke="rgba(0, 0, 0, 1)" stroke-width="0.7px" x1="139.28932188134524" x2="134.28932188134524" y1="19.28932188134533" y2="19.28932188134533"/>
<line stroke="rgba(0, 0, 0, 1)" stroke-width="0.7px" x1="134.28932188134524" x2="129.28932188134524" y1="19.28932188134533" y2="19.28932188134533"/>
<line stroke="rgba(0, 0, 0, 1)" stroke-width="0.7px" x1="129.28932188134524" x2="125.75378797541252" y1="19.28932188134533" y2="22.824855787278068"/>
<line stroke="rgba(0, 0, 0, 1)" stroke-width="0.7px" x1="125.75378797541252" x2="125.75378797541252" y1="22.824855787278068" y2="27.824855787278068"/>
<line stroke="rgba(0, 0, 0, 1)" stroke-width="0.7px" x1="125.75378797541252" x2="120.75378797541254" y1="22.824855787278068" y2="22.824855787278068"/>
<line stroke="rgba(0, 0, 0, 1)" stroke-width="0.7px" x1="129.28932188134524" x2="125.75378797541252" y1="19.28932188134533" y2="15.753787975412592"/>
<line stroke="rgba(0, 0, 0, 1)" stroke-width="0.7px" x1="125.75378797541252" x2="120.75378797541254" y1="15.753787975412592" y2="15.753787975412592"/>
<line stroke="rgba(0, 0, 0, 1)" stroke-width="0.7px" x1="125.75378797541252" x2="125.75378797541252" y1="15.753787975412592" y2="10.753787975412592"/>
<line stroke="rgba(0, 0, 0, 1)" stroke-width="0.7px" x1="139.28932188134524" x2="139.28932188134524" y1="19.28932188134533" y2="14.28932188134533"/>
<line stroke="rgba(0, 0, 0, 1)" stroke-width="0.7px" x1="139.28932188134524" x2="139.28932188134524" y1="14.28932188134533" y2="9.28932188134533"/>
<line stroke="rgba(0, 0, 0, 1)" stroke-width="0.7px" x1="139.28932188134524" x2="135.75378797541254" y1="9.28932188134533" y2="5.7537879754125925"/>
<line stroke="rgba(0, 0, 0, 1)" stroke-width="0.7px" x1="135.75378797541254" x2="130.75378797541254" y1="5.7537879754125925" y2="5.7537879754125925"/>
<line stroke="rgba(0, 0, 0, 1)" stroke-width="0.7px" x1="135.75378797541254" x2="135.75378797541254" y1="5.7537879754125925" y2="0.7537879754125925"/>
<line stroke="rgba(0, 0, 0, 1)" stroke-width="0.7px" x1="139.28932188134524" x2="142.82485578727798" y1="9.28932188134533" y2="5.7537879754125925"/>
<line stroke="rgba(0, 0, 0, 1)" stroke-width="0.7px" x1="142.82485578727798" x2="142.82485578727798" y1="5.7537879754125925" y2="0.7537879754125925"/>
<line stroke="rgba(0, 0, 0, 1)" stroke-width="0.7px" x1="142.82485578727798" x2="147.82485578727798" y1="5.7537879754125925" y2="5.7537879754125925"/>
<line stroke="rgba(0, 0, 0, 1)" stroke-width="0.7px" x1="193.4314575050762" x2="193.4314575050762" y1="33.43145750507625" y2="28.431457505076253"/>
<line stroke="rgba(0, 0, 0, 1)" stroke-width="0.7px" x1="193.4314575050762" x2="193.4314575050762" y1="28.431457505076253" y2="23.431457505076253"/>
<line stroke="rgba(0, 0, 0, 1)" stroke-width="0.7px" x1="193.4314575050762" x2="193.4314575050762" y1="23.431457505076253" y2="18.431457505076253"/>
<line stroke="rgba(0, 0, 0, 1)" stroke-width="0.7px" x1="193.4314575050762" x2="193.4314575050762" y1="18.431457505076253" y2="13.431457505076253"/>
<line stroke="rgba(0, 0, 0, 1)" stroke-width="0.7px" x1="193.4314575050762" x2="193.4314575050762" y1="13.431457505076253" y2="8.431457505076253"/>
<line stroke="rgba(0, 0, 0, 1)" stroke-width="0.7px" x1="193.4314575050762" x2="193.4314575050762" y1="8.431457505076253" y2="3.431457505076253"/>
<line stroke="rgba(0, 0, 0, 1)" stroke-width="0.7px" x1="193.4314575050762" x2="193.4314575050762" y1="3.431457505076253" y2="-1.5685424949237472"/>
<line stroke="rgba(0, 0, 0, 1)" stroke-width="0.7px" x1="193.4314575050762" x2="193.4314575050762" y1="-1.5685424949237472" y2="-6.568542494923747"/>
<line stroke="rgba(0, 0, 0, 1)" stroke-width="0.7px" x1="193.4314575050762" x2="189.8959235991435" y1="-6.568542494923747" y2="-10.104076400856457"/>
<line stroke="rgba(0, 0, 0, 1)" stroke-width="0.7px" x1="189.8959235991435" x2="186.36038969321072" y1="-10.104076400856457" y2="-13.639610306789223"/>
<line stroke="rgba(0, 0, 0, 1)" stroke-width="0.7px" x1="186.36038969321072" x2="182.824855787278" y1="-13.639610306789223" y2="-17.17514421272199"/>
<line stroke="rgba(0, 0, 0, 1)" stroke-width="0.7px" x1="182.824855787278" x2="179.28932188134524" y1="-17.17514421272199" y2="-20.710678118654755"/>
<line stroke="rgba(0, 0, 0, 1)" stroke-width="0.7px" x1="179.28932188134524" x2="174.28932188134524" y1="-20.710678118654755" y2="-20.710678118654755"/>
<line stroke="rgba(0, 0, 0, 1)" stroke-width="0.7px" x1="174.28932188134524" x2="169.28932188134524" y1="-20.710678118654755" y2="-20.710678118654755"/>
<line stroke="rgba(0, 0, 0, 1)" stroke-width="0.7px" x1="169.28932188134524" x2="165.75378797541254" y1="-20.710678118654755" y2="-17.175144212722046"/>
<line stroke="rgba(0, 0, 0, 1)" stroke-width="0.7px" x1="165.75378797541254" x2="165.75378797541254" y1="-17.175144212722046" y2="-12.175144212722046"/>
<line stroke="rgba(0, 0, 0, 1)" stroke-width="0.7px" x1="165.75378797541254" x2="160.75378797541254" y1="-17.175144212722046" y2="-17.175144212722046"/>
<line stroke="rgba(0, 0, 0, 1)" stroke-width="0.7px" x1="169.28932188134524" x2="165.75378797541254" y1="-20.710678118654755" y2="-24.24621202458752"/>
<line stroke="rgba(0, 0, 0, 1)" stroke-width="0.7px" x1="165.75378797541254" x2="160.75378797541254" y1="-24.24621202458752" y2="-24.24621202458752"/>
<line stroke="rgba(0, 0, 0, 1)" stroke-width="0.7px" x1="165.75378797541254" x2="165.75378797541254" y1="-24.24621202458752" y2="-29.24621202458752"/>
<line stroke="rgba(0, 0, 0, 1)" stroke-width="0.7px" x1="179.28932188134524" x2="179.28932188134524" y1="-20.710678118654755" y2="-25.710678118654755"/>
<line stroke="rgba(0, 0, 0, 1)" stroke-width="0.7px" x1="179.28932188134524" x2="179.28932188134524" y1="-25.710678118654755" y2="-30.710678118654755"/>
<line stroke="rgba(0, 0, 0, 1)" stroke-width="0.7px" x1="179.28932188134524" x2="175.75378797541254" y1="-30.710678118654755" y2="-34.24621202458752"/>
<line stroke="rgba(0, 0, 0, 1)" stroke-width="0.7px" x1="175.75378797541254" x2="170.75378797541254" y1="-34.24621202458752" y2="-34.24621202458752"/>
<line stroke="rgba(0, 0, 0, 1)" stroke-width="0.7px" x1="175.75378797541254" x2="175.75378797541254" y1="-34.24621202458752" y2="-39.24621202458752"/>
<line stroke="rgba(0, 0, 0, 1)" stroke-width="0.7px" x1="179.28932188134524" x2="182.824855787278" y1="-30.710678118654755" y2="-34.246212024587464"/>
<line stroke="rgba(0, 0, 0, 1)" stroke-width="0.7px" x1="182.824855787278" x2="182.824855787278" y1="-34.246212024587464" y2="-39.246212024587464"/>
<line stroke="rgba(0, 0, 0, 1)" stroke-width="0.7px" x1="182.824855787278" x2="187.824855787278" y1="-34.246212024587464" y2="-34.246212024587464"/>
<line stroke="rgba(0, 0, 0, 1)" stroke-width="0.7px" x1="193.4314575050762" x2="196.96699141100896" y1="-6.568542494923747" y2="-10.104076400856457"/>
<line stroke="rgba(0, 0, 0, 1)" stroke-width="0.7px" x1="196.96699141100896" x2="200.50252531694167" y1="-10.104076400856457" y2="-13.639610306789166"/>
<line stroke="rgba(0, 0, 0, 1)" stroke-width="0.7px" x1="200.50252531694167" x2="204.03805922287444" y1="-13.639610306789166" y2="-17.175144212721875"/>
<line stroke="rgba(0, 0, 0, 1)" stroke-width="0.7px" x1="204.03805922287444" x2="207.57359312880715" y1="-17.175144212721875" y2="-20.710678118654585"/>
<line stroke="rgba(0, 0, 0, 1)" stroke-width="0.7px" x1="207.57359312880715" x2="207.57359312880715" y1="-20.710678118654585" y2="-25.710678118654585"/>
<line stroke="rgba(0, 0, 0, 1)" stroke-width="0.7px" x1="207.57359312880715" x2="207.57359312880715" y1="-25.710678118654585" y2="-30.710678118654585"/>
<line stroke="rgba(0, 0, 0, 1)" stroke-width="0.7px" x1="207.57359312880715" x2="204.03805922287444" y1="-30.710678118654585" y2="-34.246212024587294"/>
<line stroke="rgba(0, 0, 0, 1)" stroke-width="0.7px" x1="204.03805922287444" x2="199.03805922287444" y1="-34.246212024587294" y2="-34.246212024587294"/>
<line stroke="rgba(0, 0, 0, 1)" stroke-width="0.7px" x1="204.03805922287444" x2="204.03805922287444" y1="-34.246212024587294" y2="-39.246212024587294"/>
<line stroke="rgba(0, 0, 0, 1)" stroke-width="0.7px" x1="207.57359312880715" x2="211.1091270347399" y1="-30.710678118654585" y2="-34.246212024587294"/>
<line stroke="rgba(0, 0, 0, 1)" stroke-width="0.7px" x1="211.1091270347399" x2="211.1091270347399" y1="-34.246212024587294" y2="-39.246212024587294"/>
<line stroke="rgba(0, 0, 0, 1)" stroke-width="0.7px" x1="211.1091270347399" x2="216.1091270347399" y1="-34.246212024587294" y2="-34.246212024587294"/>
<line stroke="rgba(0, 0, 0, 1)" stroke-width="0.7px" x1="207.57359312880715" x2="212.57359312880715" y1="-20.710678118654585" y2="-20.710678118654585"/>
<line stroke="rgba(0, 0, 0, 1)" stroke-width="0.7px" x1="212.57359312880715" x2="217.57359312880715" y1="-20.710678118654585" y2="-20.710678118654585"/>
<line stroke="rgba(0, 0, 0, 1)" stroke-width="0.7px" x1="217.57359312880715" x2="221.1091270347399" y1="-20.710678118654585" y2="-24.246212024587294"/>
<line stroke="rgba(0, 0, 0, 1)" stroke-width="0.7px" x1="221.1091270347399" x2="221.1091270347399" y1="-24.246212024587294" y2="-29.246212024587294"/>
<line stroke="rgba(0, 0, 0, 1)" stroke-width="0.7px" x1="221.1091270347399" x2="226.1091270347399" y1="-24.246212024587294" y2="-24.246212024587294"/>
<line stroke="rgba(0, 0, 0, 1)" stroke-width="0.7px" x1="217.57359312880715" x2="221.1091270347399" y1="-20.710678118654585" y2="-17.17514421272182"/>
<line stroke="rgba(0, 0, 0, 1)" stroke-width="0.7px" x1="221.1091270347399" x2="226.1091270347399" y1="-17.17514421272182" y2="-17.17514421272182"/>
<line stroke="rgba(0, 0, 0, 1)" stroke-width="0.7px" x1="221.1091270347399" x2="221.1091270347399" y1="-17.17514421272182" y2="-12.175144212721818"/>
<line stroke="rgba(0, 0, 0, 1)" stroke-width="0.7px" x1="250" x2="253.53553390593274" y1="90" y2="86.46446609406726"/>
<line stroke="rgba(0, 0, 0, 1)" stroke-width="0.7px" x1="253.53553390593274" x2="257.0710678118655" y1="86.46446609406726" y2="82.92893218813452"/>
<line stroke="rgba(0, 0, 0, 1)" stroke-width="0.7px" x1="257.0710678118655" x2="260.60660171779824" y1="82.92893218813452" y2="79.39339828220179"/>
<line stroke="rgba(0, 0, 0, 1)" stroke-width="0.7px" x1="260.60660171779824" x2="264.14213562373095" y1="79.39339828220179" y2="75.85786437626905"/>
<line stroke="rgba(0, 0, 0, 1)" stroke-width="0.7px" x1="264.14213562373095" x2="267.6776695296637" y1="75.85786437626905" y2="72.32233047033631"/>
<line stroke="rgba(0, 0, 0, 1)" stroke-width="0.7px" x1="267.6776695296637" x2="271.2132034355964" y1="72.32233047033631" y2="68.78679656440357"/>
<line stroke="rgba(0, 0, 0, 1)" stroke-width="0.7px" x1="271.2132034355964" x2="274.7487373415292" y1="68.78679656440357" y2="65.25126265847084"/>
<line stroke="rgba(0, 0, 0, 1)" stroke-width="0.7px" x1="274.7487373415292" x2="278.2842712474619" y1="65.25126265847084" y2="61.7157287525381"/>
<line stroke="rgba(0, 0, 0, 1)" stroke-width="0.7px" x1="278.2842712474619" x2="281.81980515339467" y1="61.7157287525381" y2="58.18019484660536"/>
<line stroke="rgba(0, 0, 0, 1)" stroke-width="0.7px" x1="281.81980515339467" x2="285.3553390593274" y1="58.18019484660536" y2="54.64466094067265"/>
<line stroke="rgba(0, 0, 0, 1)" stroke-width="0.7px" x1="285.3553390593274" x2="288.89087296526014" y1="54.64466094067265" y2="51.10912703473991"/>
<line stroke="rgba(0, 0, 0, 1)" stroke-width="0.7px" x1="288.89087296526014" x2="292.42640687119285" y1="51.10912703473991" y2="47.573593128807204"/>
<line stroke="rgba(0, 0, 0, 1)" stroke-width="0.7px" x1="292.42640687119285" x2="295.9619407771256" y1="47.573593128807204" y2="44.038059222874466"/>
<line stroke="rgba(0, 0, 0, 1)" stroke-width="0.7px" x1="295.9619407771256" x2="299.49747468305833" y1="44.038059222874466" y2="40.50252531694173"/>
<line stroke="rgba(0, 0, 0, 1)" stroke-width="0.7px" x1="299.49747468305833" x2="303.0330085889911" y1="40.50252531694173" y2="36.96699141100899"/>
<line stroke="rgba(0, 0, 0, 1)" stroke-width="0.7px" x1="303.0330085889911" x2="306.5685424949238" y1="36.96699141100899" y2="33.43145750507625"/>
<line stroke="rgba(0, 0, 0, 1)" stroke-width="0.7px" x1="306.5685424949238" x2="306.5685424949238" y1="33.43145750507625" y2="28.431457505076253"/>
<line stroke="rgba(0, 0, 0, 1)" stroke-width="0.7px" x1="306.5685424949238" x2="306.5685424949238" y1="28.431457505076253" y2="23.431457505076253"/>
<line stroke="rgba(0, 0, 0, 1)" stroke-width="0.7px" x1="306.5685424949238" x2="306.5685424949238" y1="23.431457505076253" y2="18.431457505076253"/>
<line stroke="rgba(0, 0, 0, 1)" stroke-width="0.7px" x1="306.5685424949238" x2="306.5685424949238" y1="18.431457505076253" y2="13.431457505076253"/>
<line stroke="rgba(0, 0, 0, 1)" stroke-width="0.7px" x1="306.5685424949238" x2="306.5685424949238" y1="13.431457505076253" y2="8.431457505076253"/>
<line stroke="rgba(0, 0, 0, 1)" stroke-width="0.7px" x1="306.5685424949238" x2="306.5685424949238" y1="8.431457505076253" y2="3.431457505076253"/>
<line stroke="rgba(0, 0, 0, 1)" stroke-width="0.7px" x1="306.5685424949238" x2="306.5685424949238" y1="3.431457505076253" y2="-1.5685424949237472"/>
<line stroke="rgba(0, 0, 0, 1)" stroke-width="0.7px" x1="306.5685424949238" x2="306.5685424949238" y1="-1.5685424949237472" y2="-6.568542494923747"/>
<line stroke="rgba(0, 0, 0, 1)" stroke-width="0.7px" x1="306.5685424949238" x2="303.0330085889911" y1="-6.568542494923747" y2="-10.104076400856457"/>
<line stroke="rgba(0, 0, 0, 1)" stroke-width="0.7px" x1="303.0330085889911" x2="299.49747468305833" y1="-10.104076400856457" y2="-13.639610306789223"/>
<line stroke="rgba(0, 0, 0, 1)" stroke-width="0.7px" x1="299.49747468305833" x2="295.9619407771256" y1="-13.639610306789223" y2="-17.17514421272199"/>
<line stroke="rgba(0, 0, 0, 1)" stroke-width="0.7px" x1="295.9619407771256" x2="292.42640687119285" y1="-17.17514421272199" y2="-20.710678118654755"/>
<line stroke="rgba(0, 0, 0, 1)" stroke-width="0.7px" x1="292.42640687119285" x2="287.42640687119285" y1="-20.710678118654755" y2="-20.710678118654755"/>
<line stroke="rgba(0, 0, 0, 1)" stroke-width="0.7px" x1="287.42640687119285" x2="282.42640687119285" y1="-20.710678118654755" y2="-20.710678118654755"/>
<line stroke="rgba(0, 0, 0, 1)" stroke-width="0.7px" x1="282.42640687119285" x2="278.89087296526014" y1="-20.710678118654755" y2="-17.175144212722046"/>
<line stroke="rgba(0, 0, 0, 1)" stroke-width="0.7px" x1="278.89087296526014" x2="278.89087296526014" y1="-17.175144212722046" y2="-12.175144212722046"/>
<line stroke="rgba(0, 0, 0, 1)" stroke-width="0.7px" x1="278.89087296526014" x2="273.89087296526014" y1="-17.175144212722046" y2="-17.175144212722046"/>
<line stroke="rgba(0, 0, 0, 1)" stroke-width="0.7px" x1="282.42640687119285" x2="278.89087296526014" y1="-20.710678118654755" y2="-24.24621202458752"/>
<line stroke="rgba(0, 0, 0, 1)" stroke-width="0.7px" x1="278.89087296526014" x2="273.89087296526014" y1="-24.24621202458752" y2="-24.24621202458752"/>
<line stroke="rgba(0, 0, 0, 1)" stroke-width="0.7px" x1="278.89087296526014" x2="278.89087296526014" y1="-24.24621202458752" y2="-29.24621202458752"/>
<line stroke="rgba(0, 0, 0, 1)" stroke-width="0.7px" x1="292.42640687119285" x2="292.42640687119285" y1="-20.710678118654755" y2="-25.710678118654755"/>
<line stroke="rgba(0, 0, 0, 1)" stroke-width="0.7px" x1="292.42640687119285" x2="292.42640687119285" y1="-25.710678118654755" y2="-30.710678118654755"/>
<line stroke="rgba(0, 0, 0, 1)" stroke-width="0.7px" x1="292.42640687119285" x2="288.89087296526014" y1="-30.710678118654755" y2="-34.24621202458752"/>
<line stroke="rgba(0, 0, 0, 1)" stroke-width="0.7px" x1="288.89087296526014" x2="283.89087296526014" y1="-34.24621202458752" y2="-34.24621202458752"/>
<line stroke="rgba(0, 0, 0, 1)" stroke-width="0.7px" x1="288.89087296526014" x2="288.89087296526014" y1="-34.24621202458752" y2="-39.24621202458752"/>
<line stroke="rgba(0, 0, 0, 1)" stroke-width="0.7px" x1="292.42640687119285" x2="295.9619407771256" y1="-30.710678118654755" y2="-34.246212024587464"/>
<line stroke="rgba(0, 0, 0, 1)" stroke-width="0.7px" x1="295.9619407771256" x2="295.9619407771256" y1="-34.246212024587464" y2="-39.246212024587464"/>
<line stroke="rgba(0, 0, 0, 1)" stroke-width="0.7px" x1="295.9619407771256" x2="300.9619407771256" y1="-34.246212024587464" y2="-34.246212024587464"/>
<line stroke="rgba(0, 0, 0, 1)" stroke-width="0.7px" x1="306.5685424949238" x2="310.10407640085657" y1="-6.568542494923747" y2="-10.104076400856457"/>
<line stroke="rgba(0, 0, 0, 1)" stroke-width="0.7px" x1="310.10407640085657" x2="313.6396103067893" y1="-10.104076400856457" y2="-13.639610306789166"/>
<line stroke="rgba(0, 0, 0, 1)" stroke-width="0.7px" x1="313.6396103067893" x2="317.17514421272205" y1="-13.639610306789166" y2="-17.175144212721875"/>
<line stroke="rgba(0, 0, 0, 1)" stroke-width="0.7px" x1="317.17514421272205" x2="320.71067811865476" y1="-17.175144212721875" y2="-20.710678118654585"/>
<line stroke="rgba(0, 0, 0, 1)" stroke-width="0.7px" x1="320.71067811865476" x2="320.71067811865476" y1="-20.710678118654585" y2="-25.710678118654585"/>
<line stroke="rgba(0, 0, 0, 1)" stroke-width="0.7px" x1="320.71067811865476" x2="320.71067811865476" y1="-25.710678118654585" y2="-30.710678118654585"/>
<line stroke="rgba(0, 0, 0, 1)" stroke-width="0.7px" x1="320.71067811865476" x2="317.17514421272205" y1="-30.710678118654585" y2="-34.246212024587294"/>
<line stroke="rgba(0, 0, 0, 1)" stroke-width="0.7px" x1="317.17514421272205" x2="312.17514421272205" y1="-34.246212024587294" y2="-34.246212024587294"/>
<line stroke="rgba(0, 0, 0, 1)" stroke-width="0.7px" x1="317.17514421272205" x2="317.17514421272205" y1="-34.246212024587294" y2="-39.246212024587294"/>
<line stroke="rgba(0, 0, 0, 1)" stroke-width="0.7px" x1="320.71067811865476" x2="324.2462120245875" y1="-30.710678118654585" y2="-34.246212024587294"/>
<line stroke="rgba(0, 0, 0, 1)" stroke-width="0.7px" x1="324.2462120245875" x2="324.2462120245875" y1="-34.246212024587294" y2="-39.246212024587294"/>
<line stroke="rgba(0, 0, 0, 1)" stroke-width="0.7px" x1="324.2462120245875" x2="329.2462120245875" y1="-34.246212024587294" y2="-34.246212024587294"/>
<line stroke="rgba(0, 0, 0, 1)" stroke-width="0.7px" x1="320.71067811865476" x2="325.71067811865476" y1="-20.710678118654585" y2="-20.710678118654585"/>
<line stroke="rgba(0, 0, 0, 1)" stroke-width="0.7px" x1="325.71067811865476" x2="330.71067811865476" y1="-20.710678118654585" y2="-20.710678118654585"/>
<line stroke="rgba(0, 0, 0, 1)" stroke-width="0.7px" x1="330.71067811865476" x2="334.2462120245875" y1="-20.710678118654585" y2="-24.246212024587294"/>
<line stroke="rgba(0, 0, 0, 1)" stroke-width="0.7px" x1="334.2462120245875" x2="334.2462120245875" y1="-24.246212024587294" y2="-29.246212024587294"/>
<line stroke="rgba(0, 0, 0, 1)" stroke-width="0.7px" x1="334.2462120245875" x2="339.2462120245875" y1="-24.246212024587294" y2="-24.246212024587294"/>
<line stroke="rgba(0, 0, 0, 1)" stroke-width="0.7px" x1="330.71067811865476" x2="334.2462120245875" y1="-20.710678118654585" y2="-17.17514421272182"/>
<line stroke="rgba(0, 0, 0, 1)" stroke-width="0.7px" x1="334.2462120245875" x2="339.2462120245875" y1="-17.17514421272182" y2="-17.17514421272182"/>
<line stroke="rgba(0, 0, 0, 1)" stroke-width="0.7px" x1="334.2462120245875" x2="334.2462120245875" y1="-17.17514421272182" y2="-12.175144212721818"/>
<line stroke="rgba(0, 0, 0, 1)" stroke-width="0.7px" x1="306.5685424949238" x2="311.5685424949238" y1="33.43145750507625" y2="33.43145750507625"/>
<line stroke="rgba(0, 0, 0, 1)" stroke-width="0.7px" x1="311.5685424949238" x2="316.5685424949238" y1="33.43145750507625" y2="33.43145750507625"/>
<line stroke="rgba(0, 0, 0, 1)" stroke-width="0.7px" x1="316.5685424949238" x2="321.5685424949238" y1="33.43145750507625" y2="33.43145750507625"/>
<line stroke="rgba(0, 0, 0, 1)" stroke-width="0.7px" x1="321.5685424949238" x2="326.5685424949238" y1="33.43145750507625" y2="33.43145750507625"/>
<line stroke="rgba(0, 0, 0, 1)" stroke-width="0.7px" x1="326.5685424949238" x2="331.5685424949238" y1="33.43145750507625" y2="33.43145750507625"/>
<line stroke="rgba(0, 0, 0, 1)" stroke-width="0.7px" x1="331.5685424949238" x2="336.5685424949238" y1="33.43145750507625" y2="33.43145750507625"/>
<line stroke="rgba(0, 0, 0, 1)" stroke-width="0.7px" x1="336.5685424949238" x2="341.5685424949238" y1="33.43145750507625" y2="33.43145750507625"/>
<line stroke="rgba(0, 0, 0, 1)" stroke-width="0.7px" x1="341.5685424949238" x2="346.5685424949238" y1="33.43145750507625" y2="33.43145750507625"/>
<line stroke="rgba(0, 0, 0, 1)" stroke-width="0.7px" x1="346.5685424949238" x2="350.10407640085657" y1="33.43145750507625" y2="29.895923599143515"/>
<line stroke="rgba(0, 0, 0, 1)" stroke-width="0.7px" x1="350.10407640085657" x2="353.6396103067893" y1="29.895923599143515" y2="26.360389693210806"/>
<line stroke="rgba(0, 0, 0, 1)" stroke-width="0.7px" x1="353.6396103067893" x2="357.17514421272205" y1="26.360389693210806" y2="22.824855787278068"/>
<line stroke="rgba(0, 0, 0, 1)" stroke-width="0.7px" x1="357.17514421272205" x2="360.71067811865476" y1="22.824855787278068" y2="19.28932188134533"/>
<line stroke="rgba(0, 0, 0, 1)" stroke-width="0.7px" x1="360.71067811865476" x2="360.71067811865476" y1="19.28932188134533" y2="14.28932188134533"/>
<line stroke="rgba(0, 0, 0, 1)" stroke-width="0.7px" x1="360.71067811865476" x2="360.71067811865476" y1="14.28932188134533" y2="9.28932188134533"/>
<line stroke="rgba(0, 0, 0, 1)" stroke-width="0.7px" x1="360.71067811865476" x2="357.17514421272205" y1="9.28932188134533" y2="5.7537879754125925"/>
<line stroke="rgba(0, 0, 0, 1)" stroke-width="0.7px" x1="357.17514421272205" x2="352.17514421272205" y1="5.7537879754125925" y2="5.7537879754125925"/>
<line stroke="rgba(0, 0, 0, 1)" stroke-width="0.7px" x1="357.17514421272205" x2="357.17514421272205" y1="5.7537879754125925" y2="0.7537879754125925"/>
<line stroke="rgba(0, 0, 0, 1)" stroke-width="0.7px" x1="360.71067811865476" x2="364.2462120245875" y1="9.28932188134533" y2="5.7537879754125925"/>
<line stroke="rgba(0, 0, 0, 1)" stroke-width="0.7px" x1="364.2462120245875" x2="364.2462120245875" y1="5.7537879754125925" y2="0.7537879754125925"/>
<line stroke="rgba(0, 0, 0, 1)" stroke-width="0.7px" x1="364.2462120245875" x2="369.2462120245875" y1="5.7537879754125925" y2="5.7537879754125925"/>
<line stroke="rgba(0, 0, 0, 1)" stroke-width="0.7px" x1="360.71067811865476" x2="365.71067811865476" y1="19.28932188134533" y2="19.28932188134533"/>
<line stroke="rgba(0, 0, 0, 1)" stroke-width="0.7px" x1="365.71067811865476" x2="370.71067811865476" y1="19.28932188134533" y2="19.28932188134533"/>
<line stroke="rgba(0, 0, 0, 1)" stroke-width="0.7px" x1="370.71067811865476" x2="374.2462120245875" y1="19.28932188134533" y2="15.753787975412592"/>
<line stroke="rgba(0, 0, 0, 1)" stroke-width="0.7px" x1="374.2462120245875" x2="374.2462120245875" y1="15.753787975412592" y2="10.753787975412592"/>
<line stroke="rgba(0, 0, 0, 1)" stroke-width="0.7px" x1="374.2462120245875" x2="379.2462120245875" y1="15.753787975412592" y2="15.753787975412592"/>
<line stroke="rgba(0, 0, 0, 1)" stroke-width="0.7px" x1="370.71067811865476" x2="374.2462120245875" y1="19.28932188134533" y2="22.824855787278068"/>
<line stroke="rgba(0, 0, 0, 1)" stroke-width="0.7px" x1="374.2462120245875" x2="379.2462120245875" y1="22.824855787278068" y2="22.824855787278068"/>
<line stroke="rgba(0, 0, 0, 1)" stroke-width="0.7px" x1="374.2462120245875" x2="374.2462120245875" y1="22.824855787278068" y2="27.824855787278068"/>
<line stroke="rgba(0, 0, 0, 1)" stroke-width="0.7px" x1="346.5685424949238" x2="350.10407640085657" y1="33.43145750507625" y2="36.96699141100899"/>
<line stroke="rgba(0, 0, 0, 1)" stroke-width="0.7px" x1="350.10407640085657" x2="353.6396103067893" y1="36.96699141100899" y2="40.50252531694173"/>
<line stroke="rgba(0, 0, 0, 1)" stroke-width="0.7px" x1="353.6396103067893" x2="357.17514421272205" y1="40.50252531694173" y2="44.038059222874466"/>
<line stroke="rgba(0, 0, 0, 1)" stroke-width="0.7px" x1="357.17514421272205" x2="360.71067811865476" y1="44.038059222874466" y2="47.573593128807204"/>
<line stroke="rgba(0, 0, 0, 1)" stroke-width="0.7px" x1="360.71067811865476" x2="365.71067811865476" y1="47.573593128807204" y2="47.573593128807204"/>
<line stroke="rgba(0, 0, 0, 1)" stroke-width="0.7px" x1="365.71067811865476" x2="370.71067811865476" y1="47.573593128807204" y2="47.573593128807204"/>
<line stroke="rgba(0, 0, 0, 1)" stroke-width="0.7px" x1="370.71067811865476" x2="374.2462120245875" y1="47.573593128807204" y2="44.038059222874466"/>
<line stroke="rgba(0, 0, 0, 1)" stroke-width="0.7px" x1="374.2462120245875" x2="374.2462120245875" y1="44.038059222874466" y2="39.038059222874466"/>
<line stroke="rgba(0, 0, 0, 1)" stroke-width="0.7px" x1="374.2462120245875" x2="379.2462120245875" y1="44.038059222874466" y2="44.038059222874466"/>
<line stroke="rgba(0, 0, 0, 1)" stroke-width="0.7px" x1="370.71067811865476" x2="374.2462120245875" y1="47.573593128807204" y2="51.10912703473991"/>
<line stroke="rgba(0, 0, 0, 1)" stroke-width="0.7px" x1="374.2462120245875" x2="379.2462120245875" y1="51.10912703473991" y2="51.10912703473991"/>
<line stroke="rgba(0, 0, 0, 1)" stroke-width="0.7px" x1="374.2462120245875" x2="374.2462120245875" y1="51.10912703473991" y2="56.10912703473991"/>
<line stroke="rgba(0, 0, 0, 1)" stroke-width="0.7px" x1="360.71067811865476" x2="360.71067811865476" y1="47.573593128807204" y2="52.573593128807204"/>
<line stroke="rgba(0, 0, 0, 1)" stroke-width="0.7px" x1="360.71067811865476" x2="360.71067811865476" y1="52.573593128807204" y2="57.573593128807204"/>
<line stroke="rgba(0, 0, 0, 1)" stroke-width="0.7px" x1="360.71067811865476" x2="364.2462120245875" y1="57.573593128807204" y2="61.10912703473991"/>
<line stroke="rgba(0, 0, 0, 1)" stroke-width="0.7px" x1="364.2462120245875" x2="369.2462120245875" y1="61.10912703473991" y2="61.10912703473991"/>
<line stroke="rgba(0, 0, 0, 1)" stroke-width="0.7px" x1="364.2462120245875" x2="364.2462120245875" y1="61.10912703473991" y2="66.10912703473991"/>
<line stroke="rgba(0, 0, 0, 1)" stroke-width="0.7px" x1="360.71067811865476" x2="357.17514421272205" y1="57.573593128807204" y2="61.10912703473991"/>
<line stroke="rgba(0, 0, 0, 1)" stroke-width="0.7px" x1="357.17514421272205" x2="357.17514421272205" y1="61.10912703473991" y2="66.10912703473991"/>
<line stroke="rgba(0, 0, 0, 1)" stroke-width="0.7px" x1="357.17514421272205" x2="352.17514421272205" y1="61.10912703473991" y2="61.10912703473991"/>
</svg>